<svg width="1512" height="1403" viewBox="0 0 1512 1403" fill="none" xmlns="http://www.w3.org/2000/svg">
<circle cx="1236" cy="948" r="5" fill="#ADD9BD" fill-opacity="0.25"/>
<circle cx="1236" cy="1068" r="5" fill="#ADD9BD" fill-opacity="0.25"/>
<circle cx="1356" cy="948" r="5" fill="#ADD9BD" fill-opacity="0.25"/>
<circle cx="1356" cy="1068" r="5" fill="#ADD9BD" fill-opacity="0.25"/>
<circle cx="1236" cy="1008" r="5" fill="#ADD9BD" fill-opacity="0.25"/>
<circle cx="1236" cy="1128" r="5" fill="#ADD9BD" fill-opacity="0.25"/>
<circle cx="1356" cy="1008" r="5" fill="#ADD9BD" fill-opacity="0.25"/>
<circle cx="1356" cy="1128" r="5" fill="#ADD9BD" fill-opacity="0.25"/>
<circle cx="1236" cy="978" r="5" fill="#ADD9BD" fill-opacity="0.25"/>
<circle cx="1236" cy="1098" r="5" fill="#ADD9BD" fill-opacity="0.25"/>
<circle cx="1356" cy="978" r="5" fill="#ADD9BD" fill-opacity="0.25"/>
<circle cx="1356" cy="1098" r="5" fill="#ADD9BD" fill-opacity="0.25"/>
<circle cx="1236" cy="1038" r="5" fill="#ADD9BD" fill-opacity="0.25"/>
<circle cx="1236" cy="1158" r="5" fill="#ADD9BD" fill-opacity="0.25"/>
<circle cx="1356" cy="1038" r="5" fill="#ADD9BD" fill-opacity="0.25"/>
<circle cx="1356" cy="1158" r="5" fill="#ADD9BD" fill-opacity="0.25"/>
<circle cx="1296" cy="948" r="5" fill="#ADD9BD" fill-opacity="0.25"/>
<circle cx="1296" cy="1068" r="5" fill="#ADD9BD" fill-opacity="0.25"/>
<circle cx="1416" cy="948" r="5" fill="#ADD9BD" fill-opacity="0.25"/>
<circle cx="1416" cy="1068" r="5" fill="#ADD9BD" fill-opacity="0.25"/>
<circle cx="1296" cy="1008" r="5" fill="#ADD9BD" fill-opacity="0.25"/>
<circle cx="1296" cy="1128" r="5" fill="#ADD9BD" fill-opacity="0.25"/>
<circle cx="1416" cy="1008" r="5" fill="#ADD9BD" fill-opacity="0.25"/>
<circle cx="1416" cy="1128" r="5" fill="#ADD9BD" fill-opacity="0.25"/>
<circle cx="1296" cy="978" r="5" fill="#ADD9BD" fill-opacity="0.25"/>
<circle cx="1296" cy="1098" r="5" fill="#ADD9BD" fill-opacity="0.25"/>
<circle cx="1416" cy="978" r="5" fill="#ADD9BD" fill-opacity="0.25"/>
<circle cx="1416" cy="1098" r="5" fill="#ADD9BD" fill-opacity="0.25"/>
<circle cx="1296" cy="1038" r="5" fill="#ADD9BD" fill-opacity="0.25"/>
<circle cx="1296" cy="1158" r="5" fill="#ADD9BD" fill-opacity="0.25"/>
<circle cx="1416" cy="1038" r="5" fill="#ADD9BD" fill-opacity="0.25"/>
<circle cx="1416" cy="1158" r="5" fill="#ADD9BD" fill-opacity="0.25"/>
<circle cx="1266" cy="948" r="5" fill="#ADD9BD" fill-opacity="0.25"/>
<circle cx="1266" cy="1068" r="5" fill="#ADD9BD" fill-opacity="0.25"/>
<circle cx="1386" cy="948" r="5" fill="#ADD9BD" fill-opacity="0.25"/>
<circle cx="1386" cy="1068" r="5" fill="#ADD9BD" fill-opacity="0.25"/>
<circle cx="1266" cy="1008" r="5" fill="#ADD9BD" fill-opacity="0.25"/>
<circle cx="1266" cy="1128" r="5" fill="#ADD9BD" fill-opacity="0.25"/>
<circle cx="1386" cy="1008" r="5" fill="#ADD9BD" fill-opacity="0.25"/>
<circle cx="1386" cy="1128" r="5" fill="#ADD9BD" fill-opacity="0.25"/>
<circle cx="1266" cy="978" r="5" fill="#ADD9BD" fill-opacity="0.25"/>
<circle cx="1266" cy="1098" r="5" fill="#ADD9BD" fill-opacity="0.25"/>
<circle cx="1386" cy="978" r="5" fill="#ADD9BD" fill-opacity="0.25"/>
<circle cx="1386" cy="1098" r="5" fill="#ADD9BD" fill-opacity="0.25"/>
<circle cx="1266" cy="1038" r="5" fill="#ADD9BD" fill-opacity="0.25"/>
<circle cx="1266" cy="1158" r="5" fill="#ADD9BD" fill-opacity="0.25"/>
<circle cx="1386" cy="1038" r="5" fill="#ADD9BD" fill-opacity="0.25"/>
<circle cx="1386" cy="1158" r="5" fill="#ADD9BD" fill-opacity="0.25"/>
<circle cx="1326" cy="948" r="5" fill="#ADD9BD" fill-opacity="0.25"/>
<circle cx="1326" cy="1068" r="5" fill="#ADD9BD" fill-opacity="0.25"/>
<circle cx="1446" cy="948" r="5" fill="#ADD9BD" fill-opacity="0.25"/>
<circle cx="1446" cy="1068" r="5" fill="#ADD9BD" fill-opacity="0.25"/>
<circle cx="1326" cy="1008" r="5" fill="#ADD9BD" fill-opacity="0.25"/>
<circle cx="1326" cy="1128" r="5" fill="#ADD9BD" fill-opacity="0.25"/>
<circle cx="1446" cy="1008" r="5" fill="#ADD9BD" fill-opacity="0.25"/>
<circle cx="1446" cy="1128" r="5" fill="#ADD9BD" fill-opacity="0.25"/>
<circle cx="1326" cy="978" r="5" fill="#ADD9BD" fill-opacity="0.25"/>
<circle cx="1326" cy="1098" r="5" fill="#ADD9BD" fill-opacity="0.25"/>
<circle cx="1446" cy="978" r="5" fill="#ADD9BD" fill-opacity="0.25"/>
<circle cx="1446" cy="1098" r="5" fill="#ADD9BD" fill-opacity="0.25"/>
<circle cx="1326" cy="1038" r="5" fill="#ADD9BD" fill-opacity="0.25"/>
<circle cx="1326" cy="1158" r="5" fill="#ADD9BD" fill-opacity="0.25"/>
<circle cx="1446" cy="1038" r="5" fill="#ADD9BD" fill-opacity="0.25"/>
<circle cx="1446" cy="1158" r="5" fill="#ADD9BD" fill-opacity="0.25"/>
<circle cx="1236" cy="708" r="5" fill="#ADD9BD" fill-opacity="0.25"/>
<circle cx="1236" cy="828" r="5" fill="#ADD9BD" fill-opacity="0.25"/>
<circle cx="1356" cy="708" r="5" fill="#ADD9BD" fill-opacity="0.25"/>
<circle cx="1356" cy="828" r="5" fill="#ADD9BD" fill-opacity="0.25"/>
<circle cx="1236" cy="768" r="5" fill="#ADD9BD" fill-opacity="0.25"/>
<circle cx="1236" cy="888" r="5" fill="#ADD9BD" fill-opacity="0.25"/>
<circle cx="1356" cy="768" r="5" fill="#ADD9BD" fill-opacity="0.25"/>
<circle cx="1356" cy="888" r="5" fill="#ADD9BD" fill-opacity="0.25"/>
<circle cx="1236" cy="738" r="5" fill="#ADD9BD" fill-opacity="0.25"/>
<circle cx="1236" cy="858" r="5" fill="#ADD9BD" fill-opacity="0.25"/>
<circle cx="1356" cy="738" r="5" fill="#ADD9BD" fill-opacity="0.25"/>
<circle cx="1356" cy="858" r="5" fill="#ADD9BD" fill-opacity="0.25"/>
<circle cx="1236" cy="798" r="5" fill="#ADD9BD" fill-opacity="0.25"/>
<circle cx="1236" cy="918" r="5" fill="#ADD9BD" fill-opacity="0.25"/>
<circle cx="1356" cy="798" r="5" fill="#ADD9BD" fill-opacity="0.25"/>
<circle cx="1356" cy="918" r="5" fill="#ADD9BD" fill-opacity="0.25"/>
<circle cx="1296" cy="708" r="5" fill="#ADD9BD" fill-opacity="0.25"/>
<circle cx="1296" cy="828" r="5" fill="#ADD9BD" fill-opacity="0.25"/>
<circle cx="1416" cy="708" r="5" fill="#ADD9BD" fill-opacity="0.25"/>
<circle cx="1416" cy="828" r="5" fill="#ADD9BD" fill-opacity="0.25"/>
<circle cx="1296" cy="768" r="5" fill="#ADD9BD" fill-opacity="0.25"/>
<circle cx="1296" cy="888" r="5" fill="#ADD9BD" fill-opacity="0.25"/>
<circle cx="1416" cy="768" r="5" fill="#ADD9BD" fill-opacity="0.25"/>
<circle cx="1416" cy="888" r="5" fill="#ADD9BD" fill-opacity="0.25"/>
<circle cx="1296" cy="738" r="5" fill="#ADD9BD" fill-opacity="0.25"/>
<circle cx="1296" cy="858" r="5" fill="#ADD9BD" fill-opacity="0.25"/>
<circle cx="1416" cy="738" r="5" fill="#ADD9BD" fill-opacity="0.25"/>
<circle cx="1416" cy="858" r="5" fill="#ADD9BD" fill-opacity="0.25"/>
<circle cx="1296" cy="798" r="5" fill="#ADD9BD" fill-opacity="0.25"/>
<circle cx="1296" cy="918" r="5" fill="#ADD9BD" fill-opacity="0.25"/>
<circle cx="1416" cy="798" r="5" fill="#ADD9BD" fill-opacity="0.25"/>
<circle cx="1416" cy="918" r="5" fill="#ADD9BD" fill-opacity="0.25"/>
<circle cx="1266" cy="708" r="5" fill="#ADD9BD" fill-opacity="0.25"/>
<circle cx="1266" cy="828" r="5" fill="#ADD9BD" fill-opacity="0.25"/>
<circle cx="1386" cy="708" r="5" fill="#ADD9BD" fill-opacity="0.25"/>
<circle cx="1386" cy="828" r="5" fill="#ADD9BD" fill-opacity="0.25"/>
<circle cx="1266" cy="768" r="5" fill="#ADD9BD" fill-opacity="0.25"/>
<circle cx="1266" cy="888" r="5" fill="#ADD9BD" fill-opacity="0.25"/>
<circle cx="1386" cy="768" r="5" fill="#ADD9BD" fill-opacity="0.25"/>
<circle cx="1386" cy="888" r="5" fill="#ADD9BD" fill-opacity="0.25"/>
<circle cx="1266" cy="738" r="5" fill="#ADD9BD" fill-opacity="0.25"/>
<circle cx="1266" cy="858" r="5" fill="#ADD9BD" fill-opacity="0.25"/>
<circle cx="1386" cy="738" r="5" fill="#ADD9BD" fill-opacity="0.25"/>
<circle cx="1386" cy="858" r="5" fill="#ADD9BD" fill-opacity="0.25"/>
<circle cx="1266" cy="798" r="5" fill="#ADD9BD" fill-opacity="0.25"/>
<circle cx="1266" cy="918" r="5" fill="#ADD9BD" fill-opacity="0.25"/>
<circle cx="1386" cy="798" r="5" fill="#ADD9BD" fill-opacity="0.25"/>
<circle cx="1386" cy="918" r="5" fill="#ADD9BD" fill-opacity="0.25"/>
<circle cx="1326" cy="708" r="5" fill="#ADD9BD" fill-opacity="0.25"/>
<circle cx="1326" cy="828" r="5" fill="#ADD9BD" fill-opacity="0.25"/>
<circle cx="1446" cy="708" r="5" fill="#ADD9BD" fill-opacity="0.25"/>
<circle cx="1446" cy="828" r="5" fill="#ADD9BD" fill-opacity="0.25"/>
<circle cx="1326" cy="768" r="5" fill="#ADD9BD" fill-opacity="0.25"/>
<circle cx="1326" cy="888" r="5" fill="#ADD9BD" fill-opacity="0.25"/>
<circle cx="1446" cy="768" r="5" fill="#ADD9BD" fill-opacity="0.25"/>
<circle cx="1446" cy="888" r="5" fill="#ADD9BD" fill-opacity="0.25"/>
<circle cx="1326" cy="738" r="5" fill="#ADD9BD" fill-opacity="0.25"/>
<circle cx="1326" cy="858" r="5" fill="#ADD9BD" fill-opacity="0.25"/>
<circle cx="1446" cy="738" r="5" fill="#ADD9BD" fill-opacity="0.25"/>
<circle cx="1446" cy="858" r="5" fill="#ADD9BD" fill-opacity="0.25"/>
<circle cx="1326" cy="798" r="5" fill="#ADD9BD" fill-opacity="0.25"/>
<circle cx="1326" cy="918" r="5" fill="#ADD9BD" fill-opacity="0.25"/>
<circle cx="1446" cy="798" r="5" fill="#ADD9BD" fill-opacity="0.25"/>
<circle cx="1446" cy="918" r="5" fill="#ADD9BD" fill-opacity="0.25"/>
<circle cx="1236" cy="1188" r="5" fill="#ADD9BD" fill-opacity="0.25"/>
<circle cx="1236" cy="1308" r="5" fill="#ADD9BD" fill-opacity="0.25"/>
<circle cx="1356" cy="1188" r="5" fill="#ADD9BD" fill-opacity="0.25"/>
<circle cx="1356" cy="1308" r="5" fill="#ADD9BD" fill-opacity="0.25"/>
<circle cx="1236" cy="1248" r="5" fill="#ADD9BD" fill-opacity="0.25"/>
<circle cx="1236" cy="1368" r="5" fill="#ADD9BD" fill-opacity="0.25"/>
<circle cx="1356" cy="1248" r="5" fill="#ADD9BD" fill-opacity="0.25"/>
<circle cx="1356" cy="1368" r="5" fill="#ADD9BD" fill-opacity="0.25"/>
<circle cx="1236" cy="1218" r="5" fill="#ADD9BD" fill-opacity="0.25"/>
<circle cx="1236" cy="1338" r="5" fill="#ADD9BD" fill-opacity="0.25"/>
<circle cx="1356" cy="1218" r="5" fill="#ADD9BD" fill-opacity="0.25"/>
<circle cx="1356" cy="1338" r="5" fill="#ADD9BD" fill-opacity="0.25"/>
<circle cx="1236" cy="1278" r="5" fill="#ADD9BD" fill-opacity="0.25"/>
<circle cx="1236" cy="1398" r="5" fill="#ADD9BD" fill-opacity="0.25"/>
<circle cx="1356" cy="1278" r="5" fill="#ADD9BD" fill-opacity="0.25"/>
<circle cx="1356" cy="1398" r="5" fill="#ADD9BD" fill-opacity="0.25"/>
<circle cx="1296" cy="1188" r="5" fill="#ADD9BD" fill-opacity="0.25"/>
<circle cx="1296" cy="1308" r="5" fill="#ADD9BD" fill-opacity="0.25"/>
<circle cx="1416" cy="1188" r="5" fill="#ADD9BD" fill-opacity="0.25"/>
<circle cx="1416" cy="1308" r="5" fill="#ADD9BD" fill-opacity="0.25"/>
<circle cx="1296" cy="1248" r="5" fill="#ADD9BD" fill-opacity="0.25"/>
<circle cx="1296" cy="1368" r="5" fill="#ADD9BD" fill-opacity="0.25"/>
<circle cx="1416" cy="1248" r="5" fill="#ADD9BD" fill-opacity="0.25"/>
<circle cx="1416" cy="1368" r="5" fill="#ADD9BD" fill-opacity="0.25"/>
<circle cx="1296" cy="1218" r="5" fill="#ADD9BD" fill-opacity="0.25"/>
<circle cx="1296" cy="1338" r="5" fill="#ADD9BD" fill-opacity="0.25"/>
<circle cx="1416" cy="1218" r="5" fill="#ADD9BD" fill-opacity="0.25"/>
<circle cx="1416" cy="1338" r="5" fill="#ADD9BD" fill-opacity="0.25"/>
<circle cx="1296" cy="1278" r="5" fill="#ADD9BD" fill-opacity="0.25"/>
<circle cx="1296" cy="1398" r="5" fill="#ADD9BD" fill-opacity="0.25"/>
<circle cx="1416" cy="1278" r="5" fill="#ADD9BD" fill-opacity="0.25"/>
<circle cx="1416" cy="1398" r="5" fill="#ADD9BD" fill-opacity="0.25"/>
<circle cx="1266" cy="1188" r="5" fill="#ADD9BD" fill-opacity="0.25"/>
<circle cx="1266" cy="1308" r="5" fill="#ADD9BD" fill-opacity="0.25"/>
<circle cx="1386" cy="1188" r="5" fill="#ADD9BD" fill-opacity="0.25"/>
<circle cx="1386" cy="1308" r="5" fill="#ADD9BD" fill-opacity="0.25"/>
<circle cx="1266" cy="1248" r="5" fill="#ADD9BD" fill-opacity="0.25"/>
<circle cx="1266" cy="1368" r="5" fill="#ADD9BD" fill-opacity="0.25"/>
<circle cx="1386" cy="1248" r="5" fill="#ADD9BD" fill-opacity="0.25"/>
<circle cx="1386" cy="1368" r="5" fill="#ADD9BD" fill-opacity="0.25"/>
<circle cx="1266" cy="1218" r="5" fill="#ADD9BD" fill-opacity="0.25"/>
<circle cx="1266" cy="1338" r="5" fill="#ADD9BD" fill-opacity="0.25"/>
<circle cx="1386" cy="1218" r="5" fill="#ADD9BD" fill-opacity="0.25"/>
<circle cx="1386" cy="1338" r="5" fill="#ADD9BD" fill-opacity="0.25"/>
<circle cx="1266" cy="1278" r="5" fill="#ADD9BD" fill-opacity="0.25"/>
<circle cx="1266" cy="1398" r="5" fill="#ADD9BD" fill-opacity="0.25"/>
<circle cx="1386" cy="1278" r="5" fill="#ADD9BD" fill-opacity="0.25"/>
<circle cx="1386" cy="1398" r="5" fill="#ADD9BD" fill-opacity="0.25"/>
<circle cx="1326" cy="1188" r="5" fill="#ADD9BD" fill-opacity="0.25"/>
<circle cx="1326" cy="1308" r="5" fill="#ADD9BD" fill-opacity="0.25"/>
<circle cx="1446" cy="1188" r="5" fill="#ADD9BD" fill-opacity="0.25"/>
<circle cx="1446" cy="1308" r="5" fill="#ADD9BD" fill-opacity="0.25"/>
<circle cx="1326" cy="1248" r="5" fill="#ADD9BD" fill-opacity="0.25"/>
<circle cx="1326" cy="1368" r="5" fill="#ADD9BD" fill-opacity="0.25"/>
<circle cx="1446" cy="1248" r="5" fill="#ADD9BD" fill-opacity="0.25"/>
<circle cx="1446" cy="1368" r="5" fill="#ADD9BD" fill-opacity="0.25"/>
<circle cx="1326" cy="1218" r="5" fill="#ADD9BD" fill-opacity="0.25"/>
<circle cx="1326" cy="1338" r="5" fill="#ADD9BD" fill-opacity="0.25"/>
<circle cx="1446" cy="1218" r="5" fill="#ADD9BD" fill-opacity="0.25"/>
<circle cx="1446" cy="1338" r="5" fill="#ADD9BD" fill-opacity="0.25"/>
<circle cx="1326" cy="1278" r="5" fill="#ADD9BD" fill-opacity="0.25"/>
<circle cx="1326" cy="1398" r="5" fill="#ADD9BD" fill-opacity="0.25"/>
<circle cx="1446" cy="1278" r="5" fill="#ADD9BD" fill-opacity="0.25"/>
<circle cx="1446" cy="1398" r="5" fill="#ADD9BD" fill-opacity="0.25"/>
<circle cx="1476" cy="948" r="5" fill="#ADD9BD" fill-opacity="0.25"/>
<circle cx="1476" cy="1068" r="5" fill="#ADD9BD" fill-opacity="0.25"/>
<circle cx="1476" cy="1008" r="5" fill="#ADD9BD" fill-opacity="0.25"/>
<circle cx="1476" cy="1128" r="5" fill="#ADD9BD" fill-opacity="0.25"/>
<circle cx="1476" cy="978" r="5" fill="#ADD9BD" fill-opacity="0.25"/>
<circle cx="1476" cy="1098" r="5" fill="#ADD9BD" fill-opacity="0.25"/>
<circle cx="1476" cy="1038" r="5" fill="#ADD9BD" fill-opacity="0.25"/>
<circle cx="1476" cy="1158" r="5" fill="#ADD9BD" fill-opacity="0.25"/>
<circle cx="1506" cy="948" r="5" fill="#ADD9BD" fill-opacity="0.25"/>
<circle cx="1506" cy="1068" r="5" fill="#ADD9BD" fill-opacity="0.25"/>
<circle cx="1506" cy="1008" r="5" fill="#ADD9BD" fill-opacity="0.25"/>
<circle cx="1506" cy="1128" r="5" fill="#ADD9BD" fill-opacity="0.25"/>
<circle cx="1506" cy="978" r="5" fill="#ADD9BD" fill-opacity="0.25"/>
<circle cx="1506" cy="1098" r="5" fill="#ADD9BD" fill-opacity="0.25"/>
<circle cx="1506" cy="1038" r="5" fill="#ADD9BD" fill-opacity="0.25"/>
<circle cx="1506" cy="1158" r="5" fill="#ADD9BD" fill-opacity="0.25"/>
<circle cx="1476" cy="708" r="5" fill="#ADD9BD" fill-opacity="0.25"/>
<circle cx="1476" cy="828" r="5" fill="#ADD9BD" fill-opacity="0.25"/>
<circle cx="1476" cy="768" r="5" fill="#ADD9BD" fill-opacity="0.25"/>
<circle cx="1476" cy="888" r="5" fill="#ADD9BD" fill-opacity="0.25"/>
<circle cx="1476" cy="738" r="5" fill="#ADD9BD" fill-opacity="0.25"/>
<circle cx="1476" cy="858" r="5" fill="#ADD9BD" fill-opacity="0.25"/>
<circle cx="1476" cy="798" r="5" fill="#ADD9BD" fill-opacity="0.25"/>
<circle cx="1476" cy="918" r="5" fill="#ADD9BD" fill-opacity="0.25"/>
<circle cx="1506" cy="708" r="5" fill="#ADD9BD" fill-opacity="0.25"/>
<circle cx="1506" cy="828" r="5" fill="#ADD9BD" fill-opacity="0.25"/>
<circle cx="1506" cy="768" r="5" fill="#ADD9BD" fill-opacity="0.25"/>
<circle cx="1506" cy="888" r="5" fill="#ADD9BD" fill-opacity="0.25"/>
<circle cx="1506" cy="738" r="5" fill="#ADD9BD" fill-opacity="0.25"/>
<circle cx="1506" cy="858" r="5" fill="#ADD9BD" fill-opacity="0.25"/>
<circle cx="1506" cy="798" r="5" fill="#ADD9BD" fill-opacity="0.25"/>
<circle cx="1506" cy="918" r="5" fill="#ADD9BD" fill-opacity="0.25"/>
<circle cx="1476" cy="1188" r="5" fill="#ADD9BD" fill-opacity="0.25"/>
<circle cx="1476" cy="1308" r="5" fill="#ADD9BD" fill-opacity="0.25"/>
<circle cx="1476" cy="1248" r="5" fill="#ADD9BD" fill-opacity="0.25"/>
<circle cx="1476" cy="1368" r="5" fill="#ADD9BD" fill-opacity="0.25"/>
<circle cx="1476" cy="1218" r="5" fill="#ADD9BD" fill-opacity="0.25"/>
<circle cx="1476" cy="1338" r="5" fill="#ADD9BD" fill-opacity="0.25"/>
<circle cx="1476" cy="1278" r="5" fill="#ADD9BD" fill-opacity="0.25"/>
<circle cx="1476" cy="1398" r="5" fill="#ADD9BD" fill-opacity="0.25"/>
<circle cx="1506" cy="1188" r="5" fill="#ADD9BD" fill-opacity="0.25"/>
<circle cx="1506" cy="1308" r="5" fill="#ADD9BD" fill-opacity="0.25"/>
<circle cx="1506" cy="1248" r="5" fill="#ADD9BD" fill-opacity="0.25"/>
<circle cx="1506" cy="1368" r="5" fill="#ADD9BD" fill-opacity="0.25"/>
<circle cx="1506" cy="1218" r="5" fill="#ADD9BD" fill-opacity="0.25"/>
<circle cx="1506" cy="1338" r="5" fill="#ADD9BD" fill-opacity="0.25"/>
<circle cx="1506" cy="1278" r="5" fill="#ADD9BD" fill-opacity="0.25"/>
<circle cx="1506" cy="1398" r="5" fill="#ADD9BD" fill-opacity="0.25"/>
<line x1="250.866" y1="0.5" x2="-178.134" y2="743.55" stroke="#ADD9BD" stroke-opacity="0.25" stroke-width="2"/>
<line x1="506.866" y1="0.5" x2="77.866" y2="743.55" stroke="#ADD9BD" stroke-opacity="0.25" stroke-width="2"/>
<line x1="378.866" y1="0.5" x2="-50.134" y2="743.55" stroke="#ADD9BD" stroke-opacity="0.25" stroke-width="2"/>
<line x1="634.866" y1="0.5" x2="205.866" y2="743.55" stroke="#ADD9BD" stroke-opacity="0.25" stroke-width="2"/>
<line x1="314.866" y1="0.5" x2="-114.134" y2="743.55" stroke="#ADD9BD" stroke-opacity="0.25" stroke-width="2"/>
<line x1="570.866" y1="0.5" x2="141.866" y2="743.55" stroke="#ADD9BD" stroke-opacity="0.25" stroke-width="2"/>
<line x1="442.866" y1="0.5" x2="13.866" y2="743.55" stroke="#ADD9BD" stroke-opacity="0.25" stroke-width="2"/>
<line x1="698.866" y1="0.5" x2="269.866" y2="743.55" stroke="#ADD9BD" stroke-opacity="0.25" stroke-width="2"/>
<line x1="282.866" y1="0.5" x2="-146.134" y2="743.55" stroke="#ADD9BD" stroke-opacity="0.25" stroke-width="2"/>
<line x1="538.866" y1="0.5" x2="109.866" y2="743.55" stroke="#ADD9BD" stroke-opacity="0.25" stroke-width="2"/>
<line x1="410.866" y1="0.5" x2="-18.134" y2="743.55" stroke="#ADD9BD" stroke-opacity="0.25" stroke-width="2"/>
<line x1="666.866" y1="0.5" x2="237.866" y2="743.55" stroke="#ADD9BD" stroke-opacity="0.25" stroke-width="2"/>
<line x1="346.866" y1="0.5" x2="-82.134" y2="743.55" stroke="#ADD9BD" stroke-opacity="0.25" stroke-width="2"/>
<line x1="602.866" y1="0.5" x2="173.866" y2="743.55" stroke="#ADD9BD" stroke-opacity="0.25" stroke-width="2"/>
<line x1="474.866" y1="0.5" x2="45.866" y2="743.55" stroke="#ADD9BD" stroke-opacity="0.25" stroke-width="2"/>
<line x1="730.866" y1="0.5" x2="301.866" y2="743.55" stroke="#ADD9BD" stroke-opacity="0.25" stroke-width="2"/>
</svg>
