<svg width="32" height="32" viewBox="0 0 32 32" fill="none" xmlns="http://www.w3.org/2000/svg">
<path d="M29.0002 7.94687C28.0439 8.35937 27.0033 8.65625 25.9314 8.77187C27.0443 8.11073 27.8777 7.06625 28.2752 5.83437C27.2309 6.45559 26.0869 6.8912 24.8939 7.12187C24.3953 6.58883 23.7923 6.16418 23.1224 5.8744C22.4525 5.58461 21.7301 5.43589 21.0002 5.4375C18.0471 5.4375 15.6721 7.83125 15.6721 10.7687C15.6721 11.1812 15.7221 11.5937 15.8033 11.9906C11.3814 11.7594 7.4377 9.64687 4.81582 6.4125C4.33809 7.22848 4.08774 8.15758 4.09082 9.10312C4.09082 10.9531 5.03144 12.5844 6.46582 13.5437C5.62052 13.5105 4.79502 13.2781 4.05645 12.8656V12.9312C4.05645 15.5219 5.8877 17.6687 8.32832 18.1625C7.87007 18.2815 7.39865 18.3424 6.9252 18.3437C6.57832 18.3437 6.25019 18.3094 5.91894 18.2625C6.59394 20.375 8.55957 21.9094 10.9002 21.9594C9.06894 23.3937 6.7752 24.2375 4.28457 24.2375C3.8377 24.2375 3.4252 24.2219 2.99707 24.1719C5.35957 25.6875 8.16269 26.5625 11.1814 26.5625C20.9814 26.5625 26.3439 18.4437 26.3439 11.3969C26.3439 11.1656 26.3439 10.9344 26.3283 10.7031C27.3658 9.94375 28.2752 9.00312 29.0002 7.94687Z" fill="#215BA6"/>
</svg>
